# xmcd CD database file
#
# Track frame offsets:
#	150
#	11103
#	24019
#	38719
#	51381
#	67178
#	86301
#	95764
#	110534
#	123095
#	131391
#
# Disc length: 1976 seconds
#
# Revision: 0
# Processed by: cddbd v1.5.2PL0 Copyright (c) Steve Scherf et al.
# Submitted via: CDex 1.79
#
DISCID=8907b60b
DTITLE=Josh Harty - A long list of lies
DYEAR=2008
DGENRE=Americana
TTITLE0=December
TTITLE1=Which way I go
TTITLE2=Long Time Coming Down
TTITLE3=Country Song
TTITLE4=You and I
TTITLE5=Empire Bar
TTITLE6=Time
TTITLE7=Phone Lines
TTITLE8=Where Did I go Wrong
TTITLE9=Overtime
TTITLE10=Home
EXTD=YEAR: 2008
EXTT0=
EXTT1=
EXTT2=
EXTT3=
EXTT4=
EXTT5=
EXTT6=
EXTT7=
EXTT8=
EXTT9=
EXTT10=
PLAYORDER=
